# xmcd
#
# Track frame offsets:
# 150
# 9887
# 19977
# 30627
# 44562
# 55022
# 68080
# 77115
# 89167
# 108382
# 120082
# 132062
# 144187
# 158315
# 168885
# 186857
# 198935
# 215352
#
# Disc length: 3050 seconds
#
#
# Revision: 0
# Processed by: cddbd v1.5.1PL0 Copyright (c) Steve Scherf et al.
# Submitted via: FreeRIP 2.93 
#
DISCID=de0be812
DTITLE=Mix - Tramp Evergreen Band
DYEAR=1900
DGENRE=Country
TTITLE0=Swing drink
TTITLE1=Zradna holka
TTITLE2=Vobuj si boty
TTITLE3=Ranni letadlo
TTITLE4=Cekam v ustrani
TTITLE5=Tulaci kontinentu
TTITLE6=Vodacka
TTITLE7=Jarni navraty
TTITLE8=Zase te chytej dalky
TTITLE9=Nas zivot
TTITLE10=Celej den cekam
TTITLE11=U malych ohnu
TTITLE12=Vitr
TTITLE13=Mas kapsy deravy
TTITLE14=Podzimni bigin
TTITLE15=Velkej vandr
TTITLE16=Cerny Orfeus
TTITLE17=Jeste par dnu
EXTD=
EXTT0=
EXTT1=
EXTT2=
EXTT3=
EXTT4=
EXTT5=
EXTT6=
EXTT7=
EXTT8=
EXTT9=
EXTT10=
EXTT11=
EXTT12=
EXTT13=
EXTT14=
EXTT15=
EXTT16=
EXTT17=
PLAYORDER=
